<?xml version="1.0" encoding="utf-8"?>
<!-- Generator: Adobe Illustrator 15.0.0, SVG Export Plug-In  -->
<!DOCTYPE svg PUBLIC "-//W3C//DTD SVG 1.1//EN" "http://www.w3.org/Graphics/SVG/1.1/DTD/svg11.dtd" [
	<!ENTITY ns_flows "http://ns.adobe.com/Flows/1.0/">
]>
<svg version="1.1"
	 xmlns="http://www.w3.org/2000/svg" xmlns:xlink="http://www.w3.org/1999/xlink" xmlns:a="http://ns.adobe.com/AdobeSVGViewerExtensions/3.0/"
	 x="0px" y="0px" width="224px" height="226px" viewBox="-0.66 -0.517 224 226"
	 overflow="visible" enable-background="new -0.66 -0.517 224 226" xml:space="preserve">
<defs>
</defs>
<g>
	<path fill="none" stroke="#000000" stroke-miterlimit="10" d="M153.675,224.37c-12.138,5.58-2.314-72.455-12.69-80.869
		c-10.375-8.414-39.039,52.568-52.138,49.948s-16.106-69.935-28.919-66.158c-12.813,3.777-33.755,79.589-42.813,69.77
		c-9.058-9.818,68.192-24.591,72.989-37.059c4.796-12.468-62.058-20.884-63.615-34.152c-1.557-13.268,61.535-36.929,53.983-47.948
		c-7.552-11.02-86.125-7.509-79.585-19.158s44.46,57.257,57.8,57.965c13.34,0.709,0.684-65.475,12.821-71.055
		c12.137-5.581,54.137,47.111,62.284,36.523s-19.472-84.229-6.373-81.61c13.1,2.62-40.715,59.978-37.266,72.883
		c3.448,12.906,62.481-19.582,71.539-9.763c9.058,9.819-28.077,66.045-15.49,70.521s74.09-44.546,75.646-31.279
		c1.557,13.268-69.624-20.189-80.832-12.921c-11.209,7.268,37.931,53.373,31.392,65.021c-6.539,11.649-74.136,7.047-70.039,19.762
		C112.436,206.033,165.812,218.79,153.675,224.37z"/>
</g>
</svg>
