<?xml version="1.0" encoding="utf-8"?>
<!-- Generator: Adobe Illustrator 15.0.0, SVG Export Plug-In  -->
<!DOCTYPE svg PUBLIC "-//W3C//DTD SVG 1.1//EN" "http://www.w3.org/Graphics/SVG/1.1/DTD/svg11.dtd" [
	<!ENTITY ns_flows "http://ns.adobe.com/Flows/1.0/">
]>
<svg version="1.1"
	 xmlns="http://www.w3.org/2000/svg" xmlns:xlink="http://www.w3.org/1999/xlink" xmlns:a="http://ns.adobe.com/AdobeSVGViewerExtensions/3.0/"
	 x="0px" y="0px" width="210px" height="207px" viewBox="-0.94 -0.415 210 207"
	 overflow="visible" enable-background="new -0.94 -0.415 210 207" xml:space="preserve">
<defs>
</defs>
<path fill="none" stroke="#000000" stroke-miterlimit="10" d="M38.527,13.495c15.724,23.154,28.46,41.398,37.552,53.229
	c24.491,31.87,23.472,12.801,21.397-23.6c2.017,35.395,43.381,57.275,66.526,32.461c9.494-10.179-10.261-53.399,6.556-75.281
	c-15.566,20.254-27.868,36.729-35.616,48.211c-21.03,31.165-2.397,24.839,27.571,16.301c-29.696,8.46-39.244,53.314-8.026,70.374
	c11.893,6.5,30.45,15.32,53.575,25.854c-23.87-10.873-25.751-57.941-38.555-62.481c-32.158-11.403-59.475,25.855-46.455,55.778
	c-13.331-30.639-20.597-47.922-29.137-9.496c-3.122,14.044-6.811,34.97-11.09,61.193c4.67-28.614,49.847-44.723,50.816-59.133
	c2.349-34.926-43.042-48.445-71.178-22.477c28.754-26.539,43.72-40.364,4.193-34.833c-15.109,2.114-37.877,6.502-66.554,12.45
	c29.352-6.088,61.12,30.299,75.788,26.082c37.155-10.683,16.54-18.134-21.282-32.488c37.514,14.237,74.046-16.273,56.082-48.388
	C103.393,34.207,55.305,38.202,38.527,13.495z"/>
</svg>
