<?xml version="1.0" encoding="utf-8"?>
<!-- Generator: Adobe Illustrator 15.0.0, SVG Export Plug-In  -->
<!DOCTYPE svg PUBLIC "-//W3C//DTD SVG 1.1//EN" "http://www.w3.org/Graphics/SVG/1.1/DTD/svg11.dtd" [
	<!ENTITY ns_flows "http://ns.adobe.com/Flows/1.0/">
]>
<svg version="1.1"
	 xmlns="http://www.w3.org/2000/svg" xmlns:xlink="http://www.w3.org/1999/xlink" xmlns:a="http://ns.adobe.com/AdobeSVGViewerExtensions/3.0/"
	 x="0px" y="0px" width="85px" height="83px" viewBox="-0.843 -0.859 85 83"
	 overflow="visible" enable-background="new -0.843 -0.859 85 83" xml:space="preserve">
<defs>
</defs>
<g>
	<polygon fill="none" stroke="#000000" stroke-miterlimit="10" points="82.56,40.906 67.899,46.836 78.543,58.535 62.757,57.497 
		67.272,72.657 53.492,64.893 50.98,80.509 41.947,67.519 32.913,80.509 30.4,64.893 16.621,72.657 21.136,57.496 5.351,58.535 
		15.995,46.836 1.333,40.906 15.995,34.976 5.351,23.277 21.136,24.315 16.622,9.154 30.401,16.919 32.913,1.303 41.947,14.292 
		50.98,1.303 53.492,16.919 67.273,9.155 62.758,24.316 78.543,23.277 67.898,34.976 	"/>
</g>
</svg>
